<?xml version="1.0" encoding="UTF-8" standalone="no"?>
<svg
   width="63.597626"
   height="66.833344"
   viewBox="0 0 63.597626 66.833344"
   version="1.1"
   xml:space="preserve"
   id="SVGRoot"
   xmlns:inkscape="http://www.inkscape.org/namespaces/inkscape"
   xmlns:sodipodi="http://sodipodi.sourceforge.net/DTD/sodipodi-0.dtd"
   xmlns="http://www.w3.org/2000/svg"
   xmlns:svg="http://www.w3.org/2000/svg"><defs
   id="defs10" />
  <sodipodi:namedview
   pagecolor="#a9a9a9"
   bordercolor="#292929"
   borderopacity="1"
   inkscape:showpageshadow="2"
   inkscape:pageopacity="0.0"
   inkscape:pagecheckerboard="0"
   inkscape:deskcolor="#232323"
   id="namedview1" />
 <style
   type="text/css"
   id="style1">
g.prefab path {
  vector-effect:non-scaling-stroke;
  -inkscape-stroke:hairline;
  fill: none;
  fill-opacity: 1;
  stroke-opacity: 1;
  stroke: #00349c;
}
 </style>
 
<path
   id="path39"
   style="fill:#4d4d4d;stroke-width:0.96101"
   d="m 58.380954,0.00726326 a 1.4629036,0.9592818 6.401029e-8 0 0 -0.34795,0.0584 L 46.514424,2.9727033 a 8.721554,5.7190564 6.4010272e-8 0 0 -4.73651,2.87237 l -5.44716,7.4783897 a 1.3673617,0.89663132 6.4010323e-8 0 0 1.80517,1.20077 l 10.91334,-3.29574 a 9.9166369,6.502718 6.4010275e-8 0 0 4.42229,-2.6333097 l 6.35188,-7.15173 A 1.4629036,0.9592818 6.401029e-8 0 0 58.380954,0.00726326 Z M 49.711444,15.639243 c -2.37793,-0.0903 -5.01175,0.33445 -6.67243,1.09676 -1.09076,0.50069 -2.12692,1.08037 -3.07893,1.67889 -3.39153,2.13229 -7.23355,1.67967 -10.58436,-0.47265 -0.23479,-0.15081 -0.47664,-0.29679 -0.72545,-0.43614 -2.6425,-1.48001 -7.05206,-1.4106 -8.88673,-0.96719 -7.67724,1.85554 -14.3553896,8.33997 -16.3478596,11.52051 a 24.893983,29.563067 89.999999 0 0 0.84987,24.49728 l 5.8963596,8.21016 a 11.177081,13.27344 89.999999 0 0 18.72245,3.98555 11.220177,13.324619 89.999999 0 1 12.60675,-1.13325 l 7.7374,2.67346 a 7.230372,8.5864914 89.999999 0 0 9.7092,-1.91795 l 1.58164,-1.51467 a 10.422257,12.377041 89.999999 0 0 -3.65888,-16.15571 l -0.90681,-0.39053 a 6.8273642,8.1078959 89.999999 0 1 -1.65334,-11.21028 l 2.67615,-1.97635 c 4.95409,-3.66137 5.85286,-10.36558 0.89837,-14.01331 -1.42331,-1.0479 -2.92914,-2.00813 -4.42438,-2.71725 -0.97807,-0.46384 -2.31225,-0.70319 -3.73902,-0.75733 z"
   inkscape:label="apple" /></svg>
