<?xml version="1.0" encoding="UTF-8" standalone="no"?>
<!-- Created with Inkscape (http://www.inkscape.org/) -->

<svg
   width="104.66519"
   height="54.680805"
   viewBox="0 0 104.66519 54.680805"
   version="1.1"
   id="svg1"
   xmlns="http://www.w3.org/2000/svg"
   xmlns:svg="http://www.w3.org/2000/svg">
  <defs
     id="defs1" />
  <g
     id="layer1"
     transform="translate(0.23115911,-0.10390622)">
    <g
       id="g3"
       transform="scale(1.1600262,1)"
       style="stroke-width:0.928466">
      <rect
         style="display:inline;fill:#ffffff;fill-opacity:1;stroke:none;stroke-width:2.3;stroke-linecap:round;stroke-linejoin:miter;stroke-dasharray:none;stroke-opacity:1"
         id="rect36"
         width="104.02161"
         height="54.553551"
         x="-0.23115911"
         y="0.23115911"
         transform="scale(0.8620495,1)" />
      <path
         id="rect1"
         style="display:inline;fill:none;fill-opacity:1;stroke:#c61500;stroke-width:2.3;stroke-linecap:round;stroke-linejoin:miter;stroke-dasharray:none;stroke-opacity:1"
         d="M 34.828881,1.2539062 V 3.3359375 H 103.19781 V 1.2539062 Z m -0.29681,8.1894532 v 2.0820316 h 0.935198 v 0.02148 h 67.262951 v -0.02148 h 0.17079 V 9.4433594 Z m 0.643363,8.2089846 v 0.02734 h -0.451016 v 2.082031 h 68.368932 v -2.082031 h -0.65498 v -0.02734 z m -0.747826,8.214844 v 2.082031 H 102.79654 V 25.867188 Z M 1.3972185,34.839844 v 2.083984 H 102.88109 v -2.083984 z m -0.43941028,8.189453 v 2.082031 H 1.8001491 v 0.203125 H 103.28403 v -2.082031 h -0.84234 v -0.203125 z m 0.40293068,8.392578 v 2.082031 H 102.84462 v -2.082031 z"
         transform="scale(0.8620495,1)" />
      <path
         id="rect2"
         style="display:inline;fill:#2b3468;stroke-width:1.85693;stroke-linecap:round;stroke-linejoin:bevel"
         d="M 0,0.30888024 H 37.557205 V 29.110457 H 0 Z" />
      <path
         id="path2-4-2-8"
         style="display:inline;fill:#ffffff;stroke-width:1.85693;stroke-linecap:round;stroke-linejoin:bevel"
         d="m 13.017469,24.18558 -0.484788,-0.112158 -0.376878,0.298001 -0.032,-0.452111 -0.429484,-0.232443 0.465014,-0.167263 0.111442,-0.441659 0.31939,0.348736 0.498361,-0.04052 -0.267619,0.382794 z m -5.5490355,-0.01513 -0.484788,-0.112157 -0.3768778,0.298001 -0.032,-0.452112 -0.429484,-0.232443 0.465013,-0.167263 0.111442,-0.441659 0.3193908,0.348737 0.49836,-0.04052 -0.267619,0.382795 z m 11.4626605,0.01513 -0.484788,-0.112158 -0.376878,0.298001 -0.032,-0.452111 -0.429484,-0.232443 0.465013,-0.167263 0.111442,-0.441659 0.319391,0.348736 0.49836,-0.04052 -0.267619,0.382794 z m 5.68772,-0.0391 -0.484788,-0.112158 -0.376878,0.298001 -0.032,-0.452111 -0.429484,-0.232443 0.465013,-0.167263 0.111442,-0.441659 0.319391,0.348737 0.49836,-0.04052 -0.267619,0.382794 z m 6.269078,0.074 -0.484789,-0.112158 -0.376877,0.298001 -0.032,-0.452111 -0.429485,-0.232443 0.465014,-0.167264 0.111441,-0.441659 0.319391,0.348737 0.49836,-0.04052 -0.267618,0.382794 z m 2.699711,-20.7898595 -0.484789,-0.1121577 -0.376877,0.298001 -0.032,-0.4521112 -0.429484,-0.2324433 0.465013,-0.1672631 0.111441,-0.441659 0.319392,0.3487369 0.49836,-0.040517 -0.26762,0.3827942 z M 12.406508,5.8376242 11.92172,5.7254665 l -0.376878,0.2980009 -0.032,-0.4521111 -0.429484,-0.2324433 0.465013,-0.1672632 0.111442,-0.441659 0.319391,0.3487369 0.49836,-0.040517 -0.267619,0.3827942 z M 6.8574525,5.8224974 6.3726649,5.7103397 5.9957869,6.0083406 5.9637869,5.5562295 5.5343029,5.3237862 5.9993159,5.156523 6.1107579,4.714864 6.4301489,5.0636009 6.9285085,5.0230835 6.6608899,5.4058777 Z M 18.320154,5.8376264 17.835366,5.7254687 17.458487,6.0234696 17.426487,5.5713585 16.997004,5.3389152 17.462016,5.171652 17.573458,4.729993 17.892849,5.07873 18.39121,5.038213 18.123591,5.4210072 Z m 5.68774,-0.039093 -0.484789,-0.1121577 -0.376878,0.2980009 -0.032,-0.4521111 -0.429484,-0.2324433 0.465013,-0.1672632 0.111442,-0.441659 0.319391,0.3487369 0.49836,-0.040517 -0.267619,0.3827942 z m 6.269083,0.073997 -0.484787,-0.1121577 -0.376879,0.298001 -0.032,-0.4521111 -0.429484,-0.2324433 0.465013,-0.1672632 0.111441,-0.441659 0.319393,0.3487369 0.498359,-0.040517 -0.26762,0.3827941 z M 9.4719535,3.2477247 8.9871655,3.1355671 8.6102875,3.433568 l -0.032,-0.4521111 -0.429484,-0.2324433 0.465013,-0.1672632 0.111442,-0.441659 0.319391,0.3487369 0.49836,-0.040517 -0.267619,0.3827942 z m 5.9136465,1.9e-6 -0.484788,-0.1121577 -0.376878,0.2980009 -0.032,-0.4521111 -0.429484,-0.2324433 0.465013,-0.1672632 0.111442,-0.441659 0.319391,0.3487369 0.49836,-0.040517 -0.267619,0.3827942 z M 21.073339,3.2086334 20.588551,3.0964757 20.211673,3.3944766 20.179673,2.9423655 19.750189,2.7099222 20.215202,2.542659 20.326644,2.101 l 0.319391,0.3487369 0.49836,-0.040517 -0.267619,0.3827942 z m 6.269083,0.073997 -0.484788,-0.1121577 -0.376878,0.298001 -0.032,-0.4521112 -0.429484,-0.2324433 0.465014,-0.1672631 0.111441,-0.441659 0.319391,0.3487369 0.49836,-0.040517 -0.267618,0.3827942 z M 9.7233965,8.6934916 9.2386085,8.5813339 l -0.376878,0.2980009 -0.032,-0.4521111 -0.429484,-0.2324433 0.465013,-0.1672632 0.111442,-0.441659 0.319391,0.348737 0.49836,-0.040517 -0.267619,0.3827942 z m 5.9136465,1.8e-6 -0.484788,-0.1121577 -0.376878,0.298001 -0.032,-0.4521112 L 14.313893,8.1947822 14.778906,8.027519 14.890348,7.5858601 15.209739,7.934597 15.708099,7.89408 15.44048,8.2768742 Z m 5.687739,-0.039093 -0.484788,-0.1121577 -0.376878,0.2980009 -0.032,-0.4521111 -0.429484,-0.2324433 0.465013,-0.1672632 0.111442,-0.4416589 0.319391,0.3487369 0.49836,-0.040517 -0.267619,0.3827942 z m 6.269083,0.073997 -0.484788,-0.1121576 -0.376878,0.2980009 -0.032,-0.4521111 -0.429484,-0.2324433 0.465013,-0.1672632 0.111442,-0.441659 0.319391,0.3487369 0.49836,-0.040517 -0.267618,0.3827942 z m -15.106395,3.0380716 -0.484788,-0.112158 -0.376878,0.298001 -0.032,-0.452111 -0.429484,-0.232443 0.465013,-0.167263 0.111442,-0.441659 0.319391,0.348737 0.49836,-0.04052 -0.267619,0.382794 z m -5.5490565,-0.01513 -0.4847878,-0.112157 -0.376878,0.298 -0.032,-0.452111 -0.429484,-0.232443 0.465013,-0.167263 0.111442,-0.441659 0.319391,0.348737 0.4983598,-0.04052 -0.2676188,0.382795 z m 11.4627015,0.01513 -0.484788,-0.112158 -0.376878,0.298001 -0.032,-0.452111 -0.429484,-0.232443 0.465013,-0.167263 0.111442,-0.441659 0.319391,0.348736 0.49836,-0.04052 -0.267619,0.382794 z m 5.687739,-0.03909 -0.484788,-0.112158 -0.376878,0.298001 -0.032,-0.452111 -0.429484,-0.232444 0.465013,-0.167263 0.111442,-0.441659 0.319391,0.348737 0.49836,-0.04052 -0.267619,0.382794 z m 6.269083,0.074 -0.484788,-0.112158 -0.376878,0.298001 -0.032,-0.452111 -0.429485,-0.232443 0.465013,-0.167264 0.111441,-0.441659 0.319392,0.348737 0.498359,-0.04052 -0.267619,0.382794 z m -20.4811065,2.977335 -0.484788,-0.112158 -0.376878,0.298001 -0.032,-0.452111 -0.429484,-0.232444 0.465013,-0.167263 0.111442,-0.441659 0.319391,0.348737 0.49836,-0.04052 -0.267619,0.382794 z M 4.327774,14.763584 3.842986,14.651426 3.466108,14.949427 3.434108,14.497316 3.004624,14.264873 3.469637,14.097609 3.581079,13.65595 3.90047,14.004687 4.39883,13.964167 4.131211,14.346961 Z m 11.462701,0.01513 -0.484788,-0.112157 -0.376878,0.298001 -0.032,-0.452111 -0.429484,-0.232444 0.465013,-0.167263 0.111442,-0.441659 0.319391,0.348737 0.498361,-0.04052 -0.267619,0.382794 z m 5.68774,-0.03909 -0.484788,-0.112157 -0.376878,0.298001 -0.032,-0.452112 -0.429484,-0.232443 0.465013,-0.167263 0.111442,-0.441659 0.319391,0.348737 0.49836,-0.04052 -0.267619,0.382795 z m 6.105628,0.369986 -0.484788,-0.112158 -0.376878,0.298001 -0.032,-0.452111 -0.429484,-0.232443 0.465014,-0.167263 0.111441,-0.441659 0.319391,0.348736 0.49836,-0.04052 -0.267618,0.382794 z m -15.014647,2.92079 -0.484788,-0.112158 -0.376878,0.298001 -0.032,-0.452111 -0.429484,-0.232443 0.465013,-0.167263 0.111443,-0.441659 0.31939,0.348736 0.49836,-0.04052 -0.267619,0.382794 z m -5.5490555,-0.01513 -0.4847877,-0.112157 -0.376878,0.298001 -0.032,-0.452112 -0.429484,-0.232443 0.465013,-0.167263 0.111442,-0.441659 0.319391,0.348737 0.4983597,-0.04052 -0.2676187,0.382795 z m 11.4627015,0.01513 -0.484788,-0.112158 -0.376878,0.298001 -0.032,-0.452111 -0.429484,-0.232443 0.465013,-0.167263 0.111442,-0.441659 0.319391,0.348736 0.49836,-0.04052 -0.267619,0.382794 z m 5.687739,-0.0391 -0.484788,-0.112158 -0.376878,0.298001 -0.032,-0.452111 -0.429484,-0.232443 0.465013,-0.167263 0.111442,-0.44166 0.319391,0.348738 0.49836,-0.04052 -0.267619,0.382794 z m 6.269083,0.074 -0.484788,-0.112158 -0.376878,0.298001 -0.032,-0.452111 -0.429485,-0.232443 0.465013,-0.167264 0.111441,-0.441659 0.319392,0.348737 0.498359,-0.04052 -0.267617,0.382794 z m -20.437007,8.850304 -0.4847885,-0.112158 -0.376878,0.298001 -0.032,-0.452111 -0.429484,-0.232443 0.465013,-0.167264 0.111442,-0.441659 0.319391,0.348737 0.4983605,-0.04052 -0.2676195,0.382794 z m -5.549056,-0.01513 -0.484788,-0.112158 -0.376878,0.298001 -0.032,-0.452111 -0.429484,-0.232443 0.465013,-0.167263 0.111442,-0.441659 0.319391,0.348737 0.49836,-0.04052 -0.267619,0.382794 z m 11.462701,0.01513 -0.484788,-0.112158 -0.376878,0.298001 -0.032,-0.452111 -0.429484,-0.232443 0.465013,-0.167264 0.111442,-0.441659 0.319391,0.348737 0.49836,-0.04052 -0.267619,0.382794 z m 5.687739,-0.0391 -0.484788,-0.112158 -0.376878,0.298001 -0.032,-0.452111 -0.429484,-0.232443 0.465013,-0.167264 0.111442,-0.441659 0.319391,0.348737 0.49836,-0.04052 -0.267619,0.382794 z m 11.676086,0.0349 -0.484789,-0.112158 -0.376877,0.298001 -0.032,-0.452111 -0.429484,-0.232444 0.465013,-0.167263 0.111442,-0.441659 0.31939,0.348737 0.498361,-0.04052 -0.267619,0.382794 z m -5.407002,0.0391 -0.484787,-0.112158 -0.376879,0.298001 -0.032,-0.452111 -0.429484,-0.232444 0.465013,-0.167263 0.111442,-0.441659 0.319391,0.348737 0.498361,-0.04052 -0.26762,0.382794 z M 9.8675755,21.247168 9.3827875,21.13501 l -0.376878,0.298001 -0.032,-0.452111 -0.429484,-0.232443 0.465013,-0.167263 0.111442,-0.441659 0.319391,0.348737 0.49836,-0.04052 -0.267619,0.382794 z M 4.31852,21.232039 3.833732,21.119881 l -0.376878,0.298001 -0.032,-0.452111 -0.429484,-0.232444 0.465013,-0.167263 0.111442,-0.441659 0.319391,0.348737 0.49836,-0.04052 -0.267619,0.382794 z m 11.462702,0.01513 -0.484788,-0.112158 -0.376878,0.298001 -0.032,-0.452111 -0.429484,-0.232443 0.465013,-0.167263 0.111442,-0.441659 0.319391,0.348737 0.49836,-0.04052 -0.267619,0.382794 z m 5.687739,-0.0391 -0.484788,-0.112158 -0.376878,0.298001 -0.032,-0.452111 -0.429484,-0.232443 0.465013,-0.167263 0.111442,-0.441659 0.319391,0.348737 0.49836,-0.04052 -0.267619,0.382794 z m 11.676085,0.0349 -0.484789,-0.112158 -0.376877,0.298001 -0.032,-0.452111 -0.429485,-0.232443 0.465014,-0.167263 0.111441,-0.441659 0.31939,0.348737 0.498361,-0.04052 -0.267619,0.382794 z m -5.407002,0.0391 -0.484788,-0.112158 -0.376879,0.298001 -0.032,-0.452111 -0.429483,-0.232443 0.465012,-0.167263 0.111442,-0.441659 0.319391,0.348736 0.498361,-0.04052 -0.26762,0.382794 z m 5.215018,-6.268115 -0.484787,-0.112157 -0.376879,0.298001 -0.032,-0.452112 -0.429484,-0.232443 0.465013,-0.167263 0.111443,-0.441659 0.319391,0.348737 0.49836,-0.04052 -0.26762,0.382794 z m 0.96145,-5.7068512 -0.484787,-0.1121577 -0.376879,0.298001 -0.032,-0.4521112 -0.429484,-0.2324432 0.465013,-0.1672632 0.111441,-0.441659 0.319393,0.3487369 0.498359,-0.040517 -0.26762,0.3827941 z M 3.922898,3.2325998 3.43811,3.1204421 3.061232,3.418443 3.029232,2.9663319 2.599748,2.7338886 3.064761,2.5666254 3.176203,2.1249664 3.495594,2.4737033 3.993954,2.4331859 3.726335,2.8159801 Z M 4.174341,8.6783666 3.689553,8.5662089 3.312675,8.8642098 3.280675,8.4120987 2.851191,8.1796554 3.316204,8.0123922 3.427646,7.5707332 3.747037,7.9194702 4.245397,7.8789527 3.977778,8.2617469 Z" />
    </g>
  </g>
</svg>
