<svg xmlns="http://www.w3.org/2000/svg" width="300" height="200" viewBox="0 0 30 20">
  <!-- Red background -->
  <rect x="0" y="0" width="30" height="20" fill="#DE2910"/>
  
  <!-- Four smaller yellow stars -->
  <g transform="translate(5, 4)">
    <polygon points="0,0 1,3 -2,1.5 2,1.5 -1,3" fill="#FFDE00"/>
    <polygon points="0,0 1,3 -2,1.5 2,1.5 -1,3" transform="rotate(72)"/>
    <polygon points="0,0 1,3 -2,1.5 2,1.5 -1,3" transform="rotate(144)"/>
    <polygon points="0,0 1,3 -2,1.5 2,1.5 -1,3" transform="rotate(216)"/>
    <polygon points="0,0 1,3 -2,1.5 2,1.5 -1,3" transform="rotate(288)"/>
  </g>
  
  <!-- Larger yellow star -->
  <polygon points="7.5,5.5 10,8 9,4 11,2.5 7,2.5 9,0 7.5,2.5 6,0 8,2.5 4,2.5 6,4" fill="#FFDE00"/>
</svg>